# xmcd
#
# Track frame offsets:
#	150
#	16543
#	30430
#	46311
#	66008
#	83889
#	100566
#	118429
#	137730
#	156170
#	171766
#	186543
#	202610
#	215944
#	229878
#	248419
#	265499
#	280538
#	295462
#	310469
#
# Disc length: 4333
#
# Revision: 1
# Processed by: cddbd v1.5.1PL0 Copyright (c) Steve Scherf et al.
# Submitted via: FreeRIP 2.80 
# Normalized: r0:DSETVAR1
#
DISCID=1d10eb14
DTITLE=Various Artist - Saloon Tunes 31
DYEAR=1900
DGENRE=country
TTITLE0=Adam Gregory - Only Know I Do
TTITLE1=Bill Engvall - Now That's Awesome
TTITLE2=Dixie Chicks - without You
TTITLE3=Eric Heatherly - Swimming In Champagne
TTITLE4=Jamie O'Neal - there Is No Arizona
TTITLE5=John Anderson - Nobody's Got It All
TTITLE6=Jolie And The Wanted - I Would
TTITLE7=Karma Country - Secret Country
TTITLE8=Lisa Angelle - A Woman Gets Lonely
TTITLE9=Lonestar - Tell Her
TTITLE10=Mark Wills - everything there Is To Know
TTITLE11=Montgomery Gentry - All Night Long
TTITLE12=Randy Travis - I'll Be Rght Here Loving You
TTITLE13=Rascal Flatts - This Everyday Love
TTITLE14=Rebecca Lynn Howard - I Don't Paint Myself Into Corners
TTITLE15=Shenandoah - What Children Believe
TTITLE16=Tammy Cochran - So What
TTITLE17=Tracy Byrd - take Me With You when you Go
TTITLE18=George Strait - All My Ex's Live in Texas
TTITLE19=Marty Stuart - Tempted
EXTD=
EXTT0=
EXTT1=
EXTT2=
EXTT3=
EXTT4=
EXTT5=
EXTT6=
EXTT7=
EXTT8=
EXTT9=
EXTT10=
EXTT11=
EXTT12=
EXTT13=
EXTT14=
EXTT15=
EXTT16=
EXTT17=
EXTT18=
EXTT19=
PLAYORDER=
